<svg width="600" height="400" viewBox="0 0 600 400" xmlns="http://www.w3.org/2000/svg">
    <!-- Background -->
    <rect width="600" height="400" fill="#f8f9fa"/>
    
    <!-- Blood Drop -->
    <path d="M300 50 C300 50 400 200 400 300 C400 355.23 355.23 400 300 400 C244.77 400 200 355.23 200 300 C200 200 300 50 300 50" fill="#dc3545"/>
    
    <!-- Heart Monitor Line -->
    <path d="M50 200 L150 200 L200 100 L250 300 L300 200 L350 200 L400 150 L450 250 L500 200 L550 200" 
          stroke="#dc3545" 
          stroke-width="4" 
          fill="none"/>
          
    <!-- Cross Symbol -->
    <g transform="translate(280,150) scale(0.5)">
        <rect x="-15" y="-50" width="30" height="100" fill="#fff"/>
        <rect x="-50" y="-15" width="100" height="30" fill="#fff"/>
    </g>
</svg>
