<svg xmlns="http://www.w3.org/2000/svg" viewBox="0 0 32 32">
  <!-- Background -->
  <circle cx="16" cy="16" r="16" fill="#dc3545"/>
  
  <!-- Blood Drop -->
  <path d="M16 5 C16 5 22 14 22 19 C22 22.3 19.3 25 16 25 C12.7 25 10 22.3 10 19 C10 14 16 5 16 5" 
        fill="#ffffff" stroke="none"/>
  
  <!-- B Letter -->
  <path d="M13 13 L13 19 L16 19 C17.1 19 18 18.1 18 17 C18 16.3 17.7 15.7 17.2 15.3 C17.7 14.9 18 14.3 18 13.6 C18 12.7 17.3 12 16.4 12 L13 12 Z" 
        fill="#dc3545"/>
        
  <path d="M14 13 L16.4 13 C16.7 13 17 13.3 17 13.6 C17 13.9 16.7 14.2 16.4 14.2 L14 14.2 Z" 
        fill="#dc3545"/>
        
  <path d="M14 15.2 L16 15.2 C16.5 15.2 17 15.5 17 16 C17 16.5 16.5 17 16 17 L14 17 Z" 
        fill="#dc3545"/>
</svg>